<svg width="30" height="30" viewBox="0 0 30 30" fill="none" xmlns="http://www.w3.org/2000/svg">
<path fill-rule="evenodd" clip-rule="evenodd" d="M27.5 15C27.5 21.9037 21.9037 27.5 15 27.5C13 27.5 11.11 27.03 9.43498 26.195C8.99266 25.9659 8.48171 25.9067 7.99873 26.0287L5.21623 26.7738C4.94082 26.8472 4.65093 26.847 4.37564 26.773C4.10036 26.6991 3.84937 26.554 3.64788 26.3524C3.44638 26.1508 3.30147 25.8997 3.22768 25.6243C3.15389 25.349 3.15382 25.0591 3.22749 24.7837L3.97124 22.0012C4.09256 21.5185 4.03297 21.0081 3.80374 20.5662C2.94328 18.8371 2.49693 16.9314 2.49999 15C2.49999 8.09625 8.09623 2.5 15 2.5C21.9037 2.5 27.5 8.09625 27.5 15ZM15 9.0625C15.2486 9.0625 15.4871 9.16127 15.6629 9.33709C15.8387 9.5129 15.9375 9.75136 15.9375 10V20C15.9375 20.2486 15.8387 20.4871 15.6629 20.6629C15.4871 20.8387 15.2486 20.9375 15 20.9375C14.7513 20.9375 14.5129 20.8387 14.3371 20.6629C14.1613 20.4871 14.0625 20.2486 14.0625 20V10C14.0625 9.75136 14.1613 9.5129 14.3371 9.33709C14.5129 9.16127 14.7513 9.0625 15 9.0625ZM10.9375 12.5C10.9375 12.2514 10.8387 12.0129 10.6629 11.8371C10.4871 11.6613 10.2486 11.5625 9.99998 11.5625C9.75134 11.5625 9.51289 11.6613 9.33707 11.8371C9.16126 12.0129 9.06248 12.2514 9.06248 12.5V17.5C9.06248 17.7486 9.16126 17.9871 9.33707 18.1629C9.51289 18.3387 9.75134 18.4375 9.99998 18.4375C10.2486 18.4375 10.4871 18.3387 10.6629 18.1629C10.8387 17.9871 10.9375 17.7486 10.9375 17.5V12.5ZM20 11.5625C20.2486 11.5625 20.4871 11.6613 20.6629 11.8371C20.8387 12.0129 20.9375 12.2514 20.9375 12.5V17.5C20.9375 17.7486 20.8387 17.9871 20.6629 18.1629C20.4871 18.3387 20.2486 18.4375 20 18.4375C19.7513 18.4375 19.5129 18.3387 19.3371 18.1629C19.1613 17.9871 19.0625 17.7486 19.0625 17.5V12.5C19.0625 12.2514 19.1613 12.0129 19.3371 11.8371C19.5129 11.6613 19.7513 11.5625 20 11.5625Z" fill="white"/>
</svg>
