<svg width="30" height="30" viewBox="0 0 30 30" fill="none" xmlns="http://www.w3.org/2000/svg">
<path fill-rule="evenodd" clip-rule="evenodd" d="M27.5 15C27.5 21.9037 21.9037 27.5 15 27.5C13 27.5 11.11 27.03 9.43498 26.195C8.99266 25.9659 8.48171 25.9067 7.99873 26.0287L5.21623 26.7738C4.94082 26.8472 4.65093 26.847 4.37564 26.773C4.10036 26.6991 3.84937 26.554 3.64788 26.3524C3.44638 26.1508 3.30147 25.8997 3.22768 25.6243C3.15389 25.349 3.15382 25.0591 3.22749 24.7837L3.97124 22.0012C4.09256 21.5185 4.03297 21.0081 3.80374 20.5662C2.94328 18.8371 2.49693 16.9314 2.49999 15C2.49999 8.09625 8.09623 2.5 15 2.5C21.9037 2.5 27.5 8.09625 27.5 15ZM19.4125 11.8375C19.588 12.0133 19.6867 12.2516 19.6867 12.5C19.6867 12.7484 19.588 12.9867 19.4125 13.1625L14.4125 18.1625C14.239 18.3361 14.0044 18.4348 13.759 18.4374C13.5136 18.44 13.277 18.3462 13.1 18.1763L10.6 15.7763C10.4206 15.6039 10.3171 15.3673 10.3122 15.1186C10.3097 14.9954 10.3316 14.873 10.3765 14.7583C10.4213 14.6436 10.4884 14.5388 10.5737 14.45C10.6591 14.3612 10.7611 14.2901 10.874 14.2407C10.9868 14.1913 11.1083 14.1646 11.2314 14.1622C11.4801 14.1573 11.7206 14.2514 11.9 14.4237L13.7375 16.1875L18.0875 11.8375C18.2633 11.6619 18.5015 11.5633 18.75 11.5633C18.9984 11.5633 19.2367 11.6619 19.4125 11.8375Z" fill="white"/>
</svg>
