<svg width="30" height="30" viewBox="0 0 30 30" fill="none" xmlns="http://www.w3.org/2000/svg">
<path fill-rule="evenodd" clip-rule="evenodd" d="M4.375 11.96V18.04C4.375 20.9075 4.375 22.34 5.2775 23.2312C6.09625 24.04 7.37 24.1138 9.7725 24.1213L9.75375 23.99C9.61 22.935 9.61 21.595 9.61 19.9312V19.865C9.61 19.3612 10.0238 18.9525 10.535 18.9525C11.045 18.9525 11.4587 19.3612 11.4587 19.865C11.4587 21.61 11.46 22.8275 11.585 23.7463C11.7075 24.6388 11.9288 25.1125 12.27 25.4487C12.6112 25.785 13.09 26.005 13.9937 26.1238C14.9237 26.2488 16.1575 26.25 17.9262 26.25H19.1575C20.9263 26.25 22.1588 26.2475 23.09 26.125C23.9937 26.005 24.4725 25.785 24.8125 25.4487C25.1538 25.1112 25.3763 24.6388 25.4975 23.7463C25.6225 22.8287 25.625 21.61 25.625 19.865V10.135C25.625 8.38875 25.6225 7.1725 25.4975 6.25375C25.3763 5.36125 25.1537 4.8875 24.8137 4.55125C24.4725 4.21375 23.9938 3.995 23.0888 3.87625C22.16 3.75 20.9275 3.75 19.1587 3.75H17.9275C16.1588 3.75 14.925 3.7525 13.995 3.875C13.0913 3.995 12.6125 4.215 12.2713 4.55125C11.93 4.88875 11.7088 5.36125 11.5863 6.25375C11.4612 7.17125 11.46 8.38875 11.46 10.135C11.46 10.6387 11.0463 11.0475 10.535 11.0475C10.4144 11.0483 10.2948 11.0254 10.1831 10.9799C10.0714 10.9345 9.96975 10.8675 9.88395 10.7828C9.79816 10.698 9.72991 10.5972 9.68312 10.486C9.63633 10.3749 9.6119 10.2556 9.61125 10.135V10.0688C9.61125 8.40625 9.61125 7.065 9.755 6.01L9.77375 5.87875C7.37125 5.88625 6.09875 5.96 5.27875 6.76875C4.37625 7.66 4.375 9.09375 4.375 11.96ZM16.7325 18.685L19.8125 15.645C19.8982 15.5609 19.9663 15.4605 20.0128 15.3498C20.0593 15.239 20.0832 15.1201 20.0832 15C20.0832 14.8799 20.0593 14.761 20.0128 14.6502C19.9663 14.5395 19.8982 14.4391 19.8125 14.355L16.7325 11.315C16.5582 11.1439 16.3236 11.0481 16.0794 11.0481C15.8351 11.0481 15.6006 11.1439 15.4262 11.315C15.3405 11.3991 15.2724 11.4995 15.226 11.6102C15.1795 11.721 15.1555 11.8399 15.1555 11.96C15.1555 12.0801 15.1795 12.199 15.226 12.3098C15.2724 12.4205 15.3405 12.5209 15.4262 12.605L16.9288 14.0875H8.07125C7.95055 14.0865 7.83085 14.1093 7.71899 14.1547C7.60713 14.2001 7.50532 14.267 7.41939 14.3518C7.33347 14.4366 7.26511 14.5375 7.21824 14.6487C7.17137 14.7599 7.1469 14.8793 7.14625 15C7.14625 15.5037 7.56 15.9125 8.07125 15.9125H16.9275L15.425 17.395C15.3393 17.4791 15.2712 17.5795 15.2247 17.6902C15.1782 17.801 15.1543 17.9199 15.1543 18.04C15.1543 18.1601 15.1782 18.279 15.2247 18.3898C15.2712 18.5005 15.3393 18.6009 15.425 18.685C15.5993 18.8561 15.8339 18.9519 16.0781 18.9519C16.3224 18.9519 16.5582 18.8561 16.7325 18.685Z" fill="white"/>
</svg>
