<svg width="30" height="30" viewBox="0 0 30 30" fill="none" xmlns="http://www.w3.org/2000/svg">
<mask id="mask0_28_468" style="mask-type:luminance" maskUnits="userSpaceOnUse" x="2" y="2" width="26" height="26">
<path d="M15 27.5C21.9037 27.5 27.5 21.9038 27.5 15C27.5 8.09625 21.9037 2.5 15 2.5C8.09625 2.5 2.5 8.09625 2.5 15C2.5 17 2.97 18.89 3.80375 20.5662C4.02625 21.0113 4.1 21.52 3.97125 22.0013L3.2275 24.7838C3.15384 25.0591 3.1539 25.349 3.22769 25.6243C3.30148 25.8997 3.4464 26.1508 3.64789 26.3524C3.84939 26.554 4.10037 26.6991 4.37566 26.773C4.65094 26.847 4.94084 26.8472 5.21625 26.7738L7.99875 26.0288C8.48173 25.9067 8.99267 25.9659 9.435 26.195C11.1637 27.0557 13.0689 27.5025 15 27.5Z" fill="white"/>
<path d="M18.75 15C18.75 15.3315 18.8817 15.6495 19.1161 15.8839C19.3505 16.1183 19.6685 16.25 20 16.25C20.3315 16.25 20.6495 16.1183 20.8839 15.8839C21.1183 15.6495 21.25 15.3315 21.25 15C21.25 14.6685 21.1183 14.3505 20.8839 14.1161C20.6495 13.8817 20.3315 13.75 20 13.75C19.6685 13.75 19.3505 13.8817 19.1161 14.1161C18.8817 14.3505 18.75 14.6685 18.75 15ZM13.75 15C13.75 15.3315 13.8817 15.6495 14.1161 15.8839C14.3505 16.1183 14.6685 16.25 15 16.25C15.3315 16.25 15.6495 16.1183 15.8839 15.8839C16.1183 15.6495 16.25 15.3315 16.25 15C16.25 14.6685 16.1183 14.3505 15.8839 14.1161C15.6495 13.8817 15.3315 13.75 15 13.75C14.6685 13.75 14.3505 13.8817 14.1161 14.1161C13.8817 14.3505 13.75 14.6685 13.75 15ZM8.75 15C8.75 15.3315 8.8817 15.6495 9.11612 15.8839C9.35054 16.1183 9.66848 16.25 10 16.25C10.3315 16.25 10.6495 16.1183 10.8839 15.8839C11.1183 15.6495 11.25 15.3315 11.25 15C11.25 14.6685 11.1183 14.3505 10.8839 14.1161C10.6495 13.8817 10.3315 13.75 10 13.75C9.66848 13.75 9.35054 13.8817 9.11612 14.1161C8.8817 14.3505 8.75 14.6685 8.75 15Z" fill="black"/>
</mask>
<g mask="url(#mask0_28_468)">
<path d="M0 0H30V30H0V0Z" fill="white"/>
</g>
</svg>
