<svg width="30" height="30" viewBox="0 0 30 30" fill="none" xmlns="http://www.w3.org/2000/svg">
<path d="M15 27.5C21.9037 27.5 27.5 21.9038 27.5 15C27.5 13.8675 27.35 12.77 27.0675 11.7275C26.96 11.3325 26.4988 11.1763 26.1287 11.3488C25.0822 11.8378 23.9105 11.9928 22.7728 11.7927C21.6351 11.5926 20.5866 11.0471 19.7697 10.2303C18.9529 9.41343 18.4074 8.36492 18.2073 7.22721C18.0072 6.08951 18.1622 4.91778 18.6512 3.87125C18.8237 3.50125 18.6675 3.04 18.2725 2.93375C17.2056 2.64513 16.1052 2.49928 15 2.5C8.09625 2.5 2.5 8.09625 2.5 15C2.5 17 2.97 18.89 3.80375 20.5663C4.02625 21.0113 4.1 21.52 3.97125 22.0013L3.2275 24.7838C3.15384 25.0591 3.1539 25.349 3.22769 25.6243C3.30148 25.8997 3.4464 26.1508 3.64789 26.3524C3.84939 26.554 4.10037 26.6991 4.37566 26.773C4.65094 26.847 4.94084 26.8472 5.21625 26.7738L7.99875 26.0288C8.48173 25.9067 8.99267 25.9659 9.435 26.195C11.1637 27.0557 13.0689 27.5025 15 27.5Z" fill="white"/>
<path d="M23.75 10C25.8211 10 27.5 8.32107 27.5 6.25C27.5 4.17893 25.8211 2.5 23.75 2.5C21.6789 2.5 20 4.17893 20 6.25C20 8.32107 21.6789 10 23.75 10Z" fill="white"/>
</svg>
