<svg width="419" height="280" viewBox="0 0 419 280" fill="none" xmlns="http://www.w3.org/2000/svg">
<path d="M69.8334 209.5H139.667C178.235 209.5 209.5 240.765 209.5 279.333V279.333H69.8334V209.5Z" fill="#FEBE00"/>
<path d="M209.5 209.5H279.333V209.5C279.333 248.068 248.068 279.333 209.5 279.333V279.333V209.5Z" fill="#EE1B24"/>
<path d="M209.5 209.5C209.5 170.932 240.765 139.667 279.333 139.667V139.667V209.5H209.5V209.5Z" fill="#FEBE00"/>
<path d="M279.333 139.667V139.667C317.901 139.667 349.167 170.932 349.167 209.5V209.5H279.333V139.667Z" fill="#EE1B24"/>
<path d="M349.167 209.5V209.5C387.735 209.5 419 240.765 419 279.333V279.333H349.167V209.5Z" fill="#0E4CB0"/>
<rect x="349.167" y="69.8333" width="69.8333" height="69.8333" fill="#0E4CB0"/>
<rect x="279.333" y="69.8333" width="69.8333" height="69.8333" rx="34.9167" fill="#FEBE00"/>
<path d="M139.667 139.667V139.667C178.235 139.667 209.5 170.932 209.5 209.5V209.5H139.667V139.667Z" fill="#1D1D1D"/>
<path d="M209.5 69.8333H279.333V139.667V139.667C240.765 139.667 209.5 108.401 209.5 69.8333V69.8333Z" fill="#EE1B24"/>
<path d="M279.333 0V0C317.901 0 349.167 31.2654 349.167 69.8333V69.8333H279.333V0Z" fill="#1D1D1D"/>
<path d="M349.167 69.8333C349.167 31.2654 380.432 0 419 0V0V69.8333H349.167V69.8333Z" fill="#FEBE00"/>
<path d="M139.667 69.8333H209.5V69.8333C209.5 108.401 178.235 139.667 139.667 139.667V139.667V69.8333Z" fill="#0E4CB0"/>
<path d="M69.8334 139.667H139.667V209.5V209.5C101.099 209.5 69.8334 178.235 69.8334 139.667V139.667Z" fill="#0E4CB0"/>
<path d="M0 209.5V209.5C38.5679 209.5 69.8333 240.765 69.8333 279.333V279.333H0V209.5Z" fill="#EE1B24"/>
</svg>
