<svg width="420" height="280" viewBox="0 0 420 280" fill="none" xmlns="http://www.w3.org/2000/svg">
<path d="M280 0H349.833C388.401 0 419.667 31.2654 419.667 69.8333V69.8333H280V0Z" fill="#FEBE00"/>
<path d="M210 140H279.833V140C279.833 178.568 248.568 209.833 210 209.833V209.833V140Z" fill="#EE1B24"/>
<path d="M0 279.833C0 241.265 31.2654 210 69.8333 210V210V279.833H0V279.833Z" fill="#FEBE00"/>
<path d="M0 0V0C38.5679 0 69.8333 31.2654 69.8333 69.8333V69.8333H0V0Z" fill="#EE1B24"/>
<path d="M280 70V70C318.568 70 349.833 101.265 349.833 139.833V139.833H280V70Z" fill="#0E4CB0"/>
<rect x="140" y="70" width="69.8333" height="69.8333" fill="#0E4CB0"/>
<rect x="70" width="69.8333" height="69.8333" rx="34.9167" fill="#FEBE00"/>
<path d="M70 70V70C108.66 70 140 101.34 140 140V210H70V70Z" fill="#1D1D1D"/>
<path d="M140 140H209.833V209.833V209.833C171.265 209.833 140 178.568 140 140V140Z" fill="#EE1B24"/>
<path d="M140 0V0C178.568 0 209.833 31.2654 209.833 69.8333V69.8333H140V0Z" fill="#1D1D1D"/>
<path d="M0 209.833C0 171.265 31.2654 140 69.8333 140V140V209.833H0V209.833Z" fill="#FEBE00"/>
<path d="M210 0H279.833V0C279.833 38.5679 248.568 69.8333 210 69.8333V69.8333V0Z" fill="#0E4CB0"/>
<path d="M70 210H139.833V279.833V279.833C101.265 279.833 70 248.568 70 210V210Z" fill="#0E4CB0"/>
<path d="M210 70V70C248.568 70 279.833 101.265 279.833 139.833V139.833H210V70Z" fill="#EE1B24"/>
</svg>
