<svg width="280" height="420" viewBox="0 0 280 420" fill="none" xmlns="http://www.w3.org/2000/svg">
<path d="M140 70H209.833C248.401 70 279.667 101.265 279.667 139.833V139.833H140V70Z" fill="#FEBE00"/>
<path d="M210 350V350C248.66 350 280 381.34 280 420V420H210V350Z" fill="#FEBE00"/>
<path d="M140 350V350C178.66 350 210 381.34 210 420V420H140V350Z" fill="#FEBE00"/>
<path d="M210 210H279.833V279.833H210V210Z" fill="#EE1B24"/>
<path d="M0 419.833C0 381.265 31.2654 350 69.8333 350V350V419.833H0V419.833Z" fill="#FEBE00"/>
<path d="M0 140V140C38.5679 140 69.8333 171.265 69.8333 209.833V209.833H0V140Z" fill="#EE1B24"/>
<path d="M70 0V0C108.568 0 139.833 31.2654 139.833 69.8333V69.8333H70V0Z" fill="#EE1B24"/>
<path d="M0 70H70C108.66 70 140 101.34 140 140V140H0V70Z" fill="#0E4CB0"/>
<rect x="210" width="69.8333" height="69.8333" fill="#0E4CB0"/>
<rect y="210" width="69.8333" height="69.8333" fill="#0E4CB0"/>
<rect x="70" y="140" width="69.8333" height="69.8333" rx="34.9167" fill="#FEBE00"/>
<rect y="280" width="69.8333" height="69.8333" rx="34.9167" fill="#EE1B24"/>
<path d="M70 210V210C108.66 210 140 241.34 140 280V350H70V210Z" fill="#1D1D1D"/>
<path d="M140 280H209.833V349.833V349.833C171.265 349.833 140 318.568 140 280V280Z" fill="#EE1B24"/>
<path d="M140 140V140C178.568 140 209.833 171.265 209.833 209.833V209.833H140V140Z" fill="#1D1D1D"/>
<path d="M0 0V0C38.5679 0 69.8333 31.2654 69.8333 69.8333V69.8333H0V0Z" fill="#1D1D1D"/>
<path d="M140 0H209.833V69.8333V69.8333C171.265 69.8333 140 38.5679 140 0V0Z" fill="#1D1D1D"/>
<path d="M140 279.833C140 241.265 171.265 210 209.833 210V210V279.833H140V279.833Z" fill="#FEBE00"/>
<path d="M210 140H279.833V140C279.833 178.568 248.568 209.833 210 209.833V209.833V140Z" fill="#0E4CB0"/>
<path d="M70 350H139.833V419.833V419.833C101.265 419.833 70 388.568 70 350V350Z" fill="#0E4CB0"/>
<path d="M210 349.833C210 311.265 241.265 280 279.833 280V280V349.833H210V349.833Z" fill="#EE1B24"/>
</svg>
